<?xml version="1.0" encoding="utf-8"?>
<!-- Generator: Adobe Illustrator 21.0.0, SVG Export Plug-In . SVG Version: 6.00 Build 0)  -->
<svg version="1.1" id="Layer_1" xmlns="http://www.w3.org/2000/svg" xmlns:xlink="http://www.w3.org/1999/xlink" x="0px" y="0px"
	 viewBox="0 0 500 500" style="enable-background:new 0 0 500 500;" xml:space="preserve">
<style type="text/css">
	.st0{fill:#DF0051;}
</style>
<g>
	<path class="st0" d="M235,333.5c-51,0-92.5-41.5-92.5-92.5s41.5-92.5,92.5-92.5s92.5,41.5,92.5,92.5S286,333.5,235,333.5z"/>
	<path d="M235,150c50.2,0,91,40.8,91,91s-40.8,91-91,91s-91-40.8-91-91S184.8,150,235,150 M235,147c-51.9,0-94,42.1-94,94
		s42.1,94,94,94s94-42.1,94-94S286.9,147,235,147L235,147z"/>
</g>
</svg>
